<svg id="bold" enable-background="new 0 0 32 32" height="512" viewBox="0 0 32 32" width="512" xmlns="http://www.w3.org/2000/svg"><path d="m26 32h-20c-3.314 0-6-2.686-6-6v-20c0-3.314 2.686-6 6-6h20c3.314 0 6 2.686 6 6v20c0 3.314-2.686 6-6 6z" fill="#f5e6fe"/><path d="m17.5 8h-7.667c-1.013 0-1.833.82-1.833 1.833v10.333c0 1.014.82 1.834 1.833 1.834h5.433c-.56-.887-.933-1.933-.933-3.133v-1.627c-.1.06-.213.093-.333.093h-3.333c-.367 0-.667-.3-.667-.667s.3-.666.667-.666h3.333c.127 0 .24.033.34.093.027-.567.293-1.087.713-1.427h-4.387c-.366.001-.666-.299-.666-.666s.3-.667.667-.667h6c.28 0 .52.173.62.42l1.9-.647c.047-.02.093-.033.147-.04v-3.233c-.001-1.013-.821-1.833-1.834-1.833zm-4.167 4h-2.667c-.366 0-.666-.3-.666-.667s.3-.667.667-.667h2.667c.367 0 .667.3.667.667s-.301.667-.668.667z" fill="#be63f9"/><path d="m23.548 15.559-3.5-1.19c-.139-.048-.29-.048-.43 0l-3.5 1.19c-.27.092-.452.346-.452.631v2.679c0 3.378 3.746 5.01 3.906 5.078.084.035.173.053.261.053.089 0 .178-.018.261-.053.16-.068 3.906-1.7 3.906-5.078v-2.679c0-.285-.182-.539-.452-.631zm-1.348 2.508-2 2.667c-.116.155-.293.251-.486.265-.016 0-.032.001-.047.001-.176 0-.346-.07-.471-.195l-1.333-1.333c-.26-.26-.26-.682 0-.943s.682-.26.943 0l.79.79 1.539-2.052c.221-.294.639-.354.933-.133.293.22.353.638.132.933z" fill="#d9a4fc"/></svg>