<svg xmlns="http://www.w3.org/2000/svg" version="1.1" xmlns:xlink="http://www.w3.org/1999/xlink" width="512" height="512" x="0" y="0" viewBox="0 0 64 64" style="enable-background:new 0 0 512 512" xml:space="preserve" class=""><g><path fill="#ef6183" d="M56.049 5.593a15.554 15.554 0 0 0-8.242-2.34c-5.852 0-11.382 3.197-15.57 9.001l-.238.33-.238-.33c-4.194-5.804-9.726-9.001-15.576-9.001-2.936 0-5.784.809-8.237 2.34C.466 10.244-3.774 21.707 4.59 35.878c.845 1.363 8.784 13.64 27.057 24.767a.653.653 0 0 0 .707-.002c18.657-11.368 26.718-24.241 27.05-24.779 8.372-14.162 4.13-25.619-3.355-30.271z" opacity="0.6" data-original="#ef6183" class=""></path></g></svg>