<svg viewBox="0 0 512 512" xmlns="http://www.w3.org/2000/svg" xmlns:xlink="http://www.w3.org/1999/xlink"><linearGradient id="linear-gradient" gradientUnits="userSpaceOnUse" x1="256" x2="256" y1="1.85" y2="501.31"><stop offset="0" stop-color="#ff6132"/><stop offset="1" stop-color="#f30f8b"/></linearGradient><g id="Layer_2" data-name="Layer 2"><g id="_04.number_3" data-name="04.number 3"><circle id="background" cx="256" cy="256" fill="url(#linear-gradient)" r="256"/><path d="m186.81 237q15.62-12.28 31.43-24.93t31.44-24.92h-77v-59.15h157.32v59.15q-13.39 10.78-26.78 21.95t-26.79 22q30.5 6 47.06 25.11t16.56 48.17q0 27.54-13.4 45.39t-36.83 26.41q-23.43 8.55-53.75 7.81t-64.18-10.79v-62.2q27.17 9.68 51 12.28t38.5-2.05q14.7-4.65 14.7-16.56 0-11.52-11.53-17.48t-31.81-7.63a274.79 274.79 0 0 0 -45.94.56z" fill="#fff"/></g></g></svg>